solid 
   facet normal 0.000000e+00 -1.000000e+00 0.000000e+00
      outer loop
         vertex -1.450000e+01 -1.900000e+01 2.000000e+00
         vertex -1.450000e+01 -1.900000e+01 0.000000e+00
         vertex 1.450000e+01 -1.900000e+01 0.000000e+00
      endloop
   endfacet
   facet normal 0.000000e+00 -1.000000e+00 0.000000e+00
      outer loop
         vertex -1.450000e+01 -1.900000e+01 2.000000e+00
         vertex 1.450000e+01 -1.900000e+01 0.000000e+00
         vertex 1.450000e+01 -1.900000e+01 2.000000e+00
      endloop
   endfacet
   facet normal 1.000000e+00 0.000000e+00 0.000000e+00
      outer loop
         vertex 1.450000e+01 -1.900000e+01 2.000000e+00
         vertex 1.450000e+01 -1.900000e+01 0.000000e+00
         vertex 1.450000e+01 1.900000e+01 0.000000e+00
      endloop
   endfacet
   facet normal 1.000000e+00 0.000000e+00 -0.000000e+00
      outer loop
         vertex 1.450000e+01 -1.900000e+01 2.000000e+00
         vertex 1.450000e+01 1.900000e+01 0.000000e+00
         vertex 1.450000e+01 1.900000e+01 2.000000e+00
      endloop
   endfacet
   facet normal 0.000000e+00 1.000000e+00 -0.000000e+00
      outer loop
         vertex 1.450000e+01 1.900000e+01 2.000000e+00
         vertex 1.450000e+01 1.900000e+01 0.000000e+00
         vertex -1.450000e+01 1.900000e+01 0.000000e+00
      endloop
   endfacet
   facet normal 0.000000e+00 1.000000e+00 0.000000e+00
      outer loop
         vertex 1.450000e+01 1.900000e+01 2.000000e+00
         vertex -1.450000e+01 1.900000e+01 0.000000e+00
         vertex -1.450000e+01 1.900000e+01 2.000000e+00
      endloop
   endfacet
   facet normal -1.000000e+00 0.000000e+00 0.000000e+00
      outer loop
         vertex -1.450000e+01 1.900000e+01 2.000000e+00
         vertex -1.450000e+01 1.900000e+01 0.000000e+00
         vertex -1.450000e+01 -1.900000e+01 0.000000e+00
      endloop
   endfacet
   facet normal -1.000000e+00 0.000000e+00 0.000000e+00
      outer loop
         vertex -1.450000e+01 1.900000e+01 2.000000e+00
         vertex -1.450000e+01 -1.900000e+01 0.000000e+00
         vertex -1.450000e+01 -1.900000e+01 2.000000e+00
      endloop
   endfacet
   facet normal 0.000000e+00 0.000000e+00 1.000000e+00
      outer loop
         vertex -1.450000e+01 1.900000e+01 2.000000e+00
         vertex -1.450000e+01 -1.900000e+01 2.000000e+00
         vertex 1.450000e+01 -1.900000e+01 2.000000e+00
      endloop
   endfacet
   facet normal 0.000000e+00 -0.000000e+00 1.000000e+00
      outer loop
         vertex -1.450000e+01 1.900000e+01 2.000000e+00
         vertex 1.450000e+01 -1.900000e+01 2.000000e+00
         vertex 1.450000e+01 1.900000e+01 2.000000e+00
      endloop
   endfacet
   facet normal 0.000000e+00 0.000000e+00 -1.000000e+00
      outer loop
         vertex 1.450000e+01 -1.900000e+01 0.000000e+00
         vertex -1.450000e+01 -1.900000e+01 0.000000e+00
         vertex -1.450000e+01 1.900000e+01 0.000000e+00
      endloop
   endfacet
   facet normal 0.000000e+00 0.000000e+00 -1.000000e+00
      outer loop
         vertex 1.450000e+01 1.900000e+01 0.000000e+00
         vertex 1.450000e+01 -1.900000e+01 0.000000e+00
         vertex -1.450000e+01 1.900000e+01 0.000000e+00
      endloop
   endfacet
   facet normal 0.000000e+00 -1.000000e+00 0.000000e+00
      outer loop
         vertex -1.000000e+01 -2.421795e+01 3.500000e+00
         vertex -1.000000e+01 -2.421795e+01 0.000000e+00
         vertex 1.000000e+01 -2.421795e+01 0.000000e+00
      endloop
   endfacet
   facet normal 0.000000e+00 -1.000000e+00 0.000000e+00
      outer loop
         vertex -1.000000e+01 -2.421795e+01 3.500000e+00
         vertex 1.000000e+01 -2.421795e+01 0.000000e+00
         vertex 1.000000e+01 -2.421795e+01 3.500000e+00
      endloop
   endfacet
   facet normal 1.000000e+00 0.000000e+00 0.000000e+00
      outer loop
         vertex 1.000000e+01 -2.421795e+01 3.500000e+00
         vertex 1.000000e+01 -2.421795e+01 0.000000e+00
         vertex 1.000000e+01 -2.121795e+01 0.000000e+00
      endloop
   endfacet
   facet normal 1.000000e+00 0.000000e+00 -0.000000e+00
      outer loop
         vertex 1.000000e+01 -2.421795e+01 3.500000e+00
         vertex 1.000000e+01 -2.121795e+01 0.000000e+00
         vertex 1.000000e+01 -2.121795e+01 3.500000e+00
      endloop
   endfacet
   facet normal 0.000000e+00 1.000000e+00 -0.000000e+00
      outer loop
         vertex 1.000000e+01 -2.121795e+01 3.500000e+00
         vertex 1.000000e+01 -2.121795e+01 0.000000e+00
         vertex -1.000000e+01 -2.121795e+01 0.000000e+00
      endloop
   endfacet
   facet normal 0.000000e+00 1.000000e+00 0.000000e+00
      outer loop
         vertex 1.000000e+01 -2.121795e+01 3.500000e+00
         vertex -1.000000e+01 -2.121795e+01 0.000000e+00
         vertex -1.000000e+01 -2.121795e+01 3.500000e+00
      endloop
   endfacet
   facet normal -1.000000e+00 0.000000e+00 0.000000e+00
      outer loop
         vertex -1.000000e+01 -2.121795e+01 3.500000e+00
         vertex -1.000000e+01 -2.121795e+01 0.000000e+00
         vertex -1.000000e+01 -2.421795e+01 0.000000e+00
      endloop
   endfacet
   facet normal -1.000000e+00 0.000000e+00 0.000000e+00
      outer loop
         vertex -1.000000e+01 -2.121795e+01 3.500000e+00
         vertex -1.000000e+01 -2.421795e+01 0.000000e+00
         vertex -1.000000e+01 -2.421795e+01 3.500000e+00
      endloop
   endfacet
   facet normal 0.000000e+00 0.000000e+00 1.000000e+00
      outer loop
         vertex -1.000000e+01 -2.121795e+01 3.500000e+00
         vertex -1.000000e+01 -2.421795e+01 3.500000e+00
         vertex 1.000000e+01 -2.421795e+01 3.500000e+00
      endloop
   endfacet
   facet normal 0.000000e+00 -0.000000e+00 1.000000e+00
      outer loop
         vertex -1.000000e+01 -2.121795e+01 3.500000e+00
         vertex 1.000000e+01 -2.421795e+01 3.500000e+00
         vertex 1.000000e+01 -2.121795e+01 3.500000e+00
      endloop
   endfacet
   facet normal 0.000000e+00 0.000000e+00 -1.000000e+00
      outer loop
         vertex 1.000000e+01 -2.421795e+01 0.000000e+00
         vertex -1.000000e+01 -2.421795e+01 0.000000e+00
         vertex -1.000000e+01 -2.121795e+01 0.000000e+00
      endloop
   endfacet
   facet normal 0.000000e+00 0.000000e+00 -1.000000e+00
      outer loop
         vertex 1.000000e+01 -2.121795e+01 0.000000e+00
         vertex 1.000000e+01 -2.421795e+01 0.000000e+00
         vertex -1.000000e+01 -2.121795e+01 0.000000e+00
      endloop
   endfacet
endsolid
